<?xml version="1.0" encoding="utf-8"?>
<!-- Generator: Adobe Illustrator 17.0.0, SVG Export Plug-In . SVG Version: 6.00 Build 0)  -->
<!DOCTYPE svg PUBLIC "-//W3C//DTD SVG 1.1//EN" "http://www.w3.org/Graphics/SVG/1.1/DTD/svg11.dtd">
<svg version="1.1" id="Layer_1" xmlns="http://www.w3.org/2000/svg" xmlns:xlink="http://www.w3.org/1999/xlink" x="0px" y="0px"
	 width="508.671px" height="108.158px" viewBox="0 0 508.671 108.158" enable-background="new 0 0 508.671 108.158"
	 xml:space="preserve">
<g>
	<g id="Layer_1_1_">
		<path fill="#004A97" d="M71.178,75.237l-2.405-27.133c-0.376-4.284-0.676-8.869-0.676-13.604h-0.301
			c-1.729,4.735-4.059,9.696-6.238,13.98l-13.83,26.983h-7.14L26.608,48.48c-2.18-4.284-4.359-9.095-6.238-13.83h-0.225
			c0,4.81-0.376,9.32-0.676,13.529l-2.33,27.133H0L6.314,1.729H20.82L36.829,32.62c2.18,4.284,5.412,10.823,7.366,15.709h0.225
			c1.879-4.81,4.51-10.598,7.065-15.709L67.419,1.729h14.657l6.539,73.583H71.178V75.237z"/>
		<path fill="#004A97" d="M135.366,76.891c-5.111-0.376-8.869-2.33-11.049-5.863c-3.608,3.908-9.019,5.863-14.657,5.863
			c-10.598,0-18.941-6.464-18.941-17.212c0-9.546,7.516-15.934,17.738-16.987l10.372-1.052v-1.879c0-3.232-2.33-5.412-8.193-5.412
			c-6.013,0-12.026,1.578-15.333,3.608l-1.278-12.928c3.908-2.18,11.049-3.683,17.513-3.683c14.506,0,23.676,7.516,23.676,20.97
			v14.957c0,4.585,2.33,7.14,6.013,7.742L135.366,76.891z M119.281,52.388l-7.065,0.676c-4.81,0.451-6.84,3.608-6.84,6.84
			c0,2.781,2.33,5.111,5.562,5.111c4.134,0,8.268-3.382,8.268-7.742v-4.886h0.075V52.388z"/>
		<path fill="#004A97" d="M212.707,36.755c-9.019,0-17.287,5.336-17.287,17.888v20.669h-16.836V23.075h15.558l0.451,8.193
			c3.232-6.539,9.696-9.095,18.189-9.095l1.278,14.657C213.91,36.755,213.534,36.755,212.707,36.755z"/>
		<path fill="#004A97" d="M218.72,75.237V23h17.062v52.237H218.72z"/>
		<path fill="#004A97" d="M218.72,18.19V8.795h17.062v9.395H218.72z"/>
		<path fill="#004A97" d="M327.78,0.301c-33.898,17.813-49.081,47.803-49.081,47.803l17.362,27.133h-19.016
			c0,0-8.568-13.529-9.32-15.258c-7.216,9.095-9.696,15.258-9.696,15.258h-17.738C240.216,75.237,272.912,3.759,327.78,0.301z"/>
		<path fill="#E75300" d="M350.478,19.994c-3.833-2.405-9.546-4.585-17.513-4.585c-13.379,0-24.127,9.095-24.127,23.075
			c0,13.83,10.748,22.924,24.653,22.924c7.967,0,14.055-1.729,18.114-4.359l-1.503,16.009c-4.134,2.405-10.372,3.908-19.241,3.908
			c-19.392,0-40.136-13.228-40.136-38.483C290.725,13.078,311.62,0,330.861,0c9.245,0,16.46,1.954,20.895,4.51L350.478,19.994z"/>
		<path fill="#E75300" d="M399.559,76.891c-5.111-0.376-8.869-2.33-11.049-5.863c-3.608,3.908-9.019,5.863-14.657,5.863
			c-10.598,0-18.941-6.464-18.941-17.212c0-9.546,7.516-15.934,17.738-16.987l10.372-1.052v-1.879c0-3.232-2.33-5.412-8.193-5.412
			c-6.013,0-12.026,1.578-15.333,3.608l-1.278-12.928c3.908-2.18,11.049-3.683,17.513-3.683c14.506,0,23.676,7.516,23.676,20.97
			v14.957c0,4.585,2.33,7.14,6.013,7.742L399.559,76.891z M383.55,52.388l-7.065,0.676c-4.81,0.451-6.84,3.608-6.84,6.84
			c0,2.781,2.33,5.111,5.562,5.111c4.134,0,8.268-3.382,8.268-7.742v-4.886h0.075V52.388z"/>
		<path fill="#E75300" d="M445.182,36.755c-9.019,0-17.287,5.336-17.287,17.888v20.669h-16.836V23.075h15.558l0.451,8.193
			c3.232-6.539,9.696-9.095,18.189-9.095l1.278,14.657C446.309,36.755,446.009,36.755,445.182,36.755z"/>
		<polygon fill="#004A97" points="266.598,33.147 253.445,42.843 240.216,23 260.285,23 		"/>
		<path fill="#004A97" d="M174.826,36.83L176.104,23h-16.386V6.765l-16.16,6.088V23h-16.235c5.036,3.006,8.343,7.742,9.546,13.83
			h6.389v21.346c0,10.523,7.817,17.964,19.392,17.964c3.307,0,6.238-0.451,7.967-1.278l1.278-13.83
			c-1.503,0.601-3.232,0.827-5.412,0.827c-3.833,0-6.464-2.18-6.464-6.088V36.83H174.826L174.826,36.83z"/>
		<path fill="#E75300" d="M476.149,33.147c-5.111,0-9.47,3.683-10.598,9.019h18.415c0.15-0.376,0.15-0.676,0.15-1.127
			C484.041,36.83,480.959,33.147,476.149,33.147z M499.524,52.99h-33.447c1.278,4.585,6.088,9.921,15.333,9.921
			c6.013,0,12.627-1.353,17.137-4.059c0,0-2.255,14.281-2.706,14.506c-3.457,1.428-10.222,2.48-16.46,2.48
			c-17.062,0-30.591-10.974-30.591-28.035c0-16.987,12.552-27.434,27.209-27.434c14.506,0,23.375,9.996,23.375,20.745
			C499.524,42.768,499.524,52.99,499.524,52.99z"/>
		<text transform="matrix(1 0 0 1 499.5313 27.5679)" fill="#004A97" font-family="'Rockwell-Bold'" font-size="12.2846">®</text>
	</g>
	<g id="Layer_2">
		<g>
			<path fill="#004A97" d="M144.46,102.22V85.91h2.48v16.31H144.46z"/>
			<path fill="#004A97" d="M158.14,102.22v-7.441c0-1.203-0.752-2.405-2.706-2.405c-1.879,0-2.781,1.203-2.781,2.405v7.441h-2.33
				V90.645h2.029l0.075,1.127c0.902-0.977,1.729-1.428,3.608-1.428c2.555,0,4.435,1.578,4.435,4.209v7.667H158.14L158.14,102.22z"/>
			<path fill="#004A97" d="M170.391,92.525h-3.683v6.464c0,0.977,0.752,1.428,1.729,1.428c0.451,0,0.902-0.075,1.278-0.15
				l-0.451,2.104c-0.225,0.075-0.601,0.075-1.052,0.075c-2.105,0-3.758-1.203-3.758-3.533v-6.389h-2.255v-1.879h2.255v-2.33
				l2.33-1.203v3.533h4.059L170.391,92.525z"/>
			<path fill="#004A97" d="M182.417,95.757l-1.278,1.278h-6.99c0.075,1.428,1.428,3.457,4.134,3.457
				c1.503,0,2.631-0.376,3.683-1.203l-0.601,2.48c-0.827,0.451-1.879,0.752-3.457,0.752c-3.307,0-6.238-2.48-6.238-6.088
				c0-3.908,3.082-6.088,5.787-6.088c3.232,0,5.036,2.255,5.036,4.359C182.492,95.155,182.492,95.456,182.417,95.757z
				 M177.607,92.374c-1.428,0-3.006,1.127-3.307,2.781h5.863c0-0.075,0-0.225,0-0.301C180.162,93.727,179.185,92.374,177.607,92.374
				z"/>
			<path fill="#004A97" d="M189.257,108.158c-3.157,0-5.261-1.729-5.261-4.134c0-1.729,1.127-3.006,2.405-3.457l-1.203-1.203
				c0-0.827,0.676-1.578,1.278-1.879c-1.052-0.752-1.729-1.879-1.729-3.157c0-2.255,1.804-3.908,4.359-3.908
				c0.601,0,1.052,0.075,1.428,0.15s0.902,0.15,1.503,0.15c0.676,0,1.278-0.225,1.729-0.376l0.451,1.954
				c-0.15,0.15-0.752,0.301-1.127,0.301c0.225,0.376,0.376,1.052,0.376,1.729c0,2.105-1.578,3.908-4.284,3.908
				c-0.902,0-1.503,0.15-1.503,0.676c0,0.075,0.075,0.301,0.301,0.376l3.157,1.127c2.029,0.752,3.232,1.804,3.232,3.984
				C194.443,106.505,192.338,108.158,189.257,108.158z M190.459,102.296l-2.029-0.601c-1.428,0-2.405,0.977-2.405,2.255
				c0,1.127,1.052,2.33,3.157,2.33c2.029,0,3.082-1.052,3.082-2.029C192.263,103.423,191.662,102.671,190.459,102.296z
				 M189.182,92.299c-1.278,0-2.255,0.977-2.255,2.029c0,1.127,0.977,2.029,2.255,2.029c1.203,0,2.18-0.902,2.18-2.029
				C191.361,93.276,190.459,92.299,189.182,92.299z"/>
			<path fill="#004A97" d="M203.237,92.525c-1.879,0-4.134,0.977-4.134,4.284v5.487h-2.33V90.721h2.18l0.075,1.804
				c0.601-1.428,2.18-1.954,3.908-1.954l0.451,1.954C203.387,92.525,203.312,92.525,203.237,92.525z"/>
			<path fill="#004A97" d="M212.933,102.521c-0.827-0.15-1.428-0.752-1.654-1.503c-0.827,1.052-2.029,1.503-3.232,1.503
				c-2.33,0-3.758-1.654-3.758-3.533c0-2.255,1.804-3.533,3.833-3.683l2.706-0.225v-0.752c0-1.052-0.601-1.879-2.255-1.879
				c-1.127,0-2.33,0.376-3.232,0.902l-0.451-1.954c1.052-0.676,2.405-0.977,3.758-0.977c2.555,0,4.435,1.428,4.435,4.209v4.66
				c0,1.052,0.526,1.654,1.278,1.804L212.933,102.521z M210.753,96.959l-2.33,0.225c-1.353,0.15-2.029,1.052-2.029,1.879
				s0.676,1.578,1.578,1.578c1.203,0,2.706-1.127,2.706-2.631v-1.052h0.075V96.959z"/>
			<path fill="#004A97" d="M223.004,92.525h-3.683v6.464c0,0.977,0.752,1.428,1.729,1.428c0.451,0,0.902-0.075,1.278-0.15
				l-0.451,2.104c-0.225,0.075-0.601,0.075-1.052,0.075c-2.105,0-3.758-1.203-3.758-3.533v-6.389h-2.255v-1.879h2.255v-2.33
				l2.33-1.203v3.533h4.059L223.004,92.525z"/>
			<path fill="#004A97" d="M235.03,95.757l-1.278,1.278h-6.99c0.075,1.428,1.428,3.457,4.134,3.457c1.503,0,2.631-0.376,3.683-1.203
				l-0.601,2.48c-0.827,0.451-1.879,0.752-3.457,0.752c-3.307,0-6.238-2.48-6.238-6.088c0-3.908,3.082-6.088,5.787-6.088
				c3.232,0,5.036,2.255,5.036,4.359C235.105,95.155,235.105,95.456,235.03,95.757z M230.22,92.374
				c-1.428,0-3.006,1.127-3.307,2.781h5.863c0-0.075,0-0.225,0-0.301C232.775,93.727,231.798,92.374,230.22,92.374z"/>
			<path fill="#004A97" d="M246.229,102.22l-0.075-0.902c-0.752,0.752-2.029,1.203-3.608,1.203c-2.48,0-5.712-2.029-5.712-6.088
				c0-3.608,2.631-6.088,6.088-6.088c1.278,0,2.33,0.376,2.856,0.752v-7.065h2.33v18.189L246.229,102.22L246.229,102.22z
				 M245.929,93.502c-0.601-0.601-1.654-1.052-2.856-1.052c-2.105,0-3.758,1.578-3.758,4.059c0,2.405,1.654,3.984,3.758,3.984
				c1.278,0,2.255-0.451,2.856-1.203V93.502z"/>
			<path fill="#004A97" d="M269.83,88.842c-0.827-0.526-2.405-1.052-4.059-1.052c-3.232,0-6.539,2.105-6.539,6.314
				c0,4.209,3.307,6.314,6.539,6.314c1.954,0,3.457-0.376,4.51-1.052l-0.526,2.405c-1.052,0.526-2.18,0.827-4.284,0.827
				c-4.134,0-8.794-2.856-8.794-8.493c0-5.637,4.735-8.493,8.794-8.493c2.255,0,3.833,0.526,4.81,1.052L269.83,88.842z"/>
			<path fill="#004A97" d="M280.503,102.521c-0.827-0.15-1.428-0.752-1.654-1.503c-0.827,1.052-2.029,1.503-3.232,1.503
				c-2.33,0-3.758-1.654-3.758-3.533c0-2.255,1.804-3.533,3.833-3.683l2.706-0.225v-0.752c0-1.052-0.601-1.879-2.255-1.879
				c-1.127,0-2.33,0.376-3.232,0.902l-0.451-1.954c1.052-0.676,2.405-0.977,3.758-0.977c2.555,0,4.435,1.428,4.435,4.209v4.66
				c0,1.052,0.526,1.654,1.278,1.804L280.503,102.521z M278.398,96.959l-2.33,0.225c-1.353,0.15-2.029,1.052-2.029,1.879
				s0.676,1.578,1.578,1.578c1.203,0,2.706-1.127,2.706-2.631v-1.052h0.075V96.959z"/>
			<path fill="#004A97" d="M290.725,92.525c-1.879,0-4.134,0.977-4.134,4.284v5.487h-2.33V90.721h2.18l0.075,1.804
				c0.601-1.428,2.18-1.954,3.908-1.954l0.451,1.954C290.875,92.525,290.8,92.525,290.725,92.525z"/>
			<path fill="#004A97" d="M302.45,95.757l-1.278,1.278h-6.99c0.075,1.428,1.428,3.457,4.134,3.457c1.503,0,2.631-0.376,3.683-1.203
				l-0.601,2.48c-0.827,0.451-1.879,0.752-3.457,0.752c-3.307,0-6.238-2.48-6.238-6.088c0-3.908,3.082-6.088,5.787-6.088
				c3.232,0,5.036,2.255,5.036,4.359C302.525,95.155,302.45,95.456,302.45,95.757z M297.64,92.374c-1.428,0-3.006,1.127-3.307,2.781
				h5.863c0-0.075,0-0.225,0-0.301C300.12,93.727,299.143,92.374,297.64,92.374z"/>
			<path fill="#004A97" d="M305.908,102.521c-0.526,0-1.578-1.052-1.578-1.578c0-0.451,1.052-1.503,1.578-1.503
				s1.578,1.052,1.578,1.503C307.486,101.469,306.434,102.521,305.908,102.521z"/>
			<path fill="#004A97" d="M321.241,102.22h-5.261V85.91h4.585c2.18,0,4.585,1.428,4.585,4.284c0,1.203-0.526,2.48-1.503,2.856
				c1.503,0.451,3.006,2.105,3.006,4.209C326.577,100.642,323.796,102.22,321.241,102.22z M320.113,88.015h-1.654v4.284h1.654
				c1.353,0,2.48-0.601,2.48-2.105C322.593,88.691,321.466,88.015,320.113,88.015z M320.714,94.404h-2.33v5.712h2.33
				c1.729,0,3.307-0.902,3.307-2.856C324.097,95.381,322.443,94.404,320.714,94.404z"/>
			<path fill="#004A97" d="M339.204,95.757l-1.278,1.278h-6.99c0.075,1.428,1.428,3.457,4.134,3.457
				c1.503,0,2.631-0.376,3.683-1.203l-0.601,2.48c-0.827,0.451-1.879,0.752-3.457,0.752c-3.307,0-6.238-2.48-6.238-6.088
				c0-3.908,3.082-6.088,5.787-6.088c3.232,0,5.036,2.255,5.036,4.359C339.279,95.155,339.279,95.456,339.204,95.757z
				 M334.394,92.374c-1.428,0-3.006,1.127-3.307,2.781h5.863c0-0.075,0-0.225,0-0.301C336.949,93.727,335.972,92.374,334.394,92.374
				z"/>
			<path fill="#004A97" d="M348.675,92.525h-3.683v6.464c0,0.977,0.752,1.428,1.729,1.428c0.451,0,0.902-0.075,1.278-0.15
				l-0.451,2.104c-0.225,0.075-0.601,0.075-1.052,0.075c-2.105,0-3.758-1.203-3.758-3.533v-6.389h-2.255v-1.879h2.255v-2.33
				l2.33-1.203v3.533h4.059L348.675,92.525z"/>
			<path fill="#004A97" d="M358.145,92.525h-3.683v6.464c0,0.977,0.752,1.428,1.729,1.428c0.451,0,0.902-0.075,1.278-0.15
				l-0.451,2.104c-0.225,0.075-0.601,0.075-1.052,0.075c-2.105,0-3.758-1.203-3.758-3.533v-6.389h-2.255v-1.879h2.255v-2.33
				l2.33-1.203v3.533h4.059L358.145,92.525z"/>
			<path fill="#004A97" d="M370.171,95.757l-1.278,1.278h-6.99c0.075,1.428,1.428,3.457,4.134,3.457
				c1.503,0,2.631-0.376,3.683-1.203l-0.601,2.48c-0.827,0.451-1.879,0.752-3.457,0.752c-3.307,0-6.238-2.48-6.238-6.088
				c0-3.908,3.082-6.088,5.787-6.088c3.232,0,5.036,2.255,5.036,4.359C370.246,95.155,370.246,95.456,370.171,95.757z
				 M365.36,92.374c-1.428,0-3.006,1.127-3.307,2.781h5.863c0-0.075,0-0.225,0-0.301C367.916,93.727,366.939,92.374,365.36,92.374z"
				/>
			<path fill="#004A97" d="M379.265,92.525c-1.879,0-4.134,0.977-4.134,4.284v5.487h-2.33V90.721h2.18l0.075,1.804
				c0.601-1.428,2.18-1.954,3.908-1.954l0.451,1.954C379.416,92.525,379.34,92.525,379.265,92.525z"/>
			<path fill="#004A97" d="M395.425,102.596c-4.359,0-8.644-3.232-8.644-8.493c0-5.261,4.284-8.493,8.644-8.493
				c4.359,0,8.644,3.232,8.644,8.493S399.784,102.596,395.425,102.596z M395.425,87.789c-3.006,0-6.163,2.255-6.163,6.314
				s3.082,6.314,6.163,6.314c2.931,0,6.163-2.33,6.163-6.314S398.356,87.789,395.425,87.789z"/>
			<path fill="#004A97" d="M414.591,102.22l-0.075-1.127c-0.902,0.977-1.729,1.428-3.608,1.428c-2.556,0-4.359-1.578-4.359-4.209
				v-7.667h2.33v7.441c0,1.203,0.752,2.405,2.706,2.405c1.879,0,2.781-1.203,2.781-2.405v-7.441h2.33v11.575H414.591L414.591,102.22
				z"/>
			<path fill="#004A97" d="M426.542,92.525h-3.683v6.464c0,0.977,0.752,1.428,1.729,1.428c0.451,0,0.902-0.075,1.278-0.15
				l-0.451,2.104c-0.225,0.075-0.601,0.075-1.052,0.075c-2.105,0-3.758-1.203-3.758-3.533v-6.389h-2.255v-1.879h2.255v-2.33
				l2.33-1.203v3.533h4.059L426.542,92.525z"/>
			<path fill="#004A97" d="M437.44,93.276c-1.052-0.676-2.029-0.902-3.082-0.902c-2.105,0-4.059,1.503-4.059,4.059
				c0,2.48,2.029,3.984,4.134,3.984c1.052,0,2.029-0.225,3.307-0.827l-0.451,2.255c-0.827,0.376-1.879,0.601-3.006,0.601
				c-3.157,0-6.314-2.255-6.314-6.088s3.082-6.088,6.314-6.088c1.503,0,2.706,0.301,3.683,0.902L437.44,93.276z"/>
			<path fill="#004A97" d="M445.332,102.521c-3.457,0-6.163-2.48-6.163-6.088s2.706-6.088,6.163-6.088s6.163,2.48,6.163,6.088
				C451.496,100.041,448.79,102.521,445.332,102.521z M445.332,92.449c-2.029,0-3.833,1.578-3.833,4.059
				c0,2.405,1.729,3.984,3.833,3.984c2.029,0,3.758-1.578,3.758-3.984C449.166,94.028,447.362,92.449,445.332,92.449z"/>
			<path fill="#004A97" d="M468.632,102.22v-7.892c0-1.127-0.902-1.954-2.556-1.954s-2.556,0.902-2.556,1.954v7.892h-2.33v-7.892
				c0-1.127-0.902-1.954-2.556-1.954s-2.556,0.902-2.556,1.954v7.892h-2.33V90.645h2.029l0.075,1.127
				c0.902-0.977,1.729-1.428,3.533-1.428c1.428,0,2.631,0.752,3.232,1.654c0.827-0.902,2.029-1.654,4.134-1.654
				c2.33,0,4.059,1.578,4.059,3.758v8.117h-2.178V102.22z"/>
			<path fill="#004A97" d="M483.965,95.757l-1.278,1.278h-6.99c0.075,1.428,1.428,3.457,4.134,3.457
				c1.503,0,2.631-0.376,3.683-1.203l-0.601,2.48c-0.827,0.451-1.879,0.752-3.457,0.752c-3.307,0-6.238-2.48-6.238-6.088
				c0-3.908,3.082-6.088,5.787-6.088c3.232,0,5.036,2.255,5.036,4.359C484.041,95.155,484.041,95.456,483.965,95.757z
				 M479.155,92.374c-1.428,0-3.006,1.127-3.307,2.781h5.863c0-0.075,0-0.225,0-0.301C481.711,93.727,480.658,92.374,479.155,92.374
				z"/>
			<path fill="#004A97" d="M489.377,102.521c-1.353,0-2.555-0.376-3.232-0.827l-0.526-2.555c0.977,0.827,2.405,1.428,3.833,1.428
				c1.127,0,1.804-0.601,1.804-1.353c0-0.827-0.601-1.278-1.654-1.654c-2.33-0.827-3.608-1.954-3.608-3.758
				c0-1.954,1.578-3.307,3.908-3.307c1.353,0,2.555,0.451,3.006,0.752l-0.451,1.954c-0.526-0.376-1.353-0.752-2.631-0.752
				c-0.977,0-1.578,0.526-1.578,1.278s0.526,1.127,1.654,1.503c2.33,0.827,3.608,1.879,3.608,3.908
				C493.586,100.943,492.233,102.521,489.377,102.521z"/>
			<path fill="#004A97" d="M497.044,102.521c-0.526,0-1.578-1.052-1.578-1.578c0-0.451,1.052-1.503,1.578-1.503
				s1.578,1.052,1.578,1.503C498.547,101.469,497.495,102.521,497.044,102.521z"/>
		</g>
	</g>
</g>
</svg>
