<?xml version="1.0" encoding="UTF-8"?>
<svg width="691px" height="132px" viewBox="0 0 691 132" version="1.1" xmlns="http://www.w3.org/2000/svg" xmlns:xlink="http://www.w3.org/1999/xlink">
    <!-- Generator: Sketch 45.2 (43514) - http://www.bohemiancoding.com/sketch -->
    <title>Artboard 2</title>
    <desc>Created with Sketch.</desc>
    <defs></defs>
    <g id="Page-1" stroke="none" stroke-width="1" fill="none" fill-rule="evenodd">
        <g id="Artboard-2">
            <g id="MatrixCare-_Logo_2016" transform="translate(6.000000, -137.000000)">
                <g id="Layer_1" transform="translate(0.000000, 151.000000)">
                    <path d="M95.498,100.978 L92.275,64.921 C91.815,59.244 91.356,53.106 91.356,46.816 L91.049,46.816 C88.747,53.107 85.679,59.704 82.764,65.381 L64.352,101.285 L54.84,101.285 L36.275,65.381 C33.359,59.704 30.445,53.26 27.99,46.969 L27.683,46.969 C27.683,53.414 27.223,59.398 26.764,64.921 L23.695,100.978 L0.828,100.978 L9.268,3.088 L28.6,3.088 L49.927,44.207 C52.843,49.884 57.138,58.63 59.747,65.075 L60.054,65.075 C62.509,58.63 66.038,50.958 69.413,44.207 L90.587,3.088 L110.073,3.088 L118.819,100.978 L95.498,100.978 L95.498,100.978 Z" id="Shape" fill="#004A97" fill-rule="nonzero"></path>
                    <path d="M180.86,103.126 C174.108,102.666 169.045,100.057 166.13,95.301 C161.374,100.518 154.162,103.126 146.644,103.126 C132.529,103.126 121.482,94.535 121.482,80.265 C121.482,67.53 131.455,59.091 145.11,57.71 L158.919,56.33 L158.919,53.875 C158.919,49.579 155.85,46.664 148.025,46.664 C140.047,46.664 132.068,48.812 127.618,51.42 L125.931,34.236 C131.148,31.32 140.661,29.325 149.253,29.325 C168.586,29.325 180.707,39.299 180.707,57.25 L180.707,77.197 C180.707,83.335 183.776,86.709 188.686,87.477 L180.86,103.126 Z M159.532,70.598 L150.173,71.519 C143.729,72.132 141.121,76.275 141.121,80.572 C141.121,84.254 144.19,87.323 148.485,87.323 C154.009,87.323 159.532,82.873 159.532,77.043 L159.532,70.598 Z" id="Shape" fill="#004A97" fill-rule="nonzero"></path>
                    <path d="M283.834,49.732 C271.865,49.732 260.818,56.79 260.818,73.514 L260.818,100.978 L238.417,100.978 L238.417,31.474 L259.13,31.474 L259.743,42.368 C264.039,33.622 272.631,30.246 283.986,30.246 L285.673,49.732 C285.368,49.732 284.908,49.732 283.834,49.732 Z" id="Shape" fill="#004A97" fill-rule="nonzero"></path>
                    <polygon id="Shape" fill="#004A97" fill-rule="nonzero" points="291.823 100.978 291.823 31.474 314.531 31.474 314.531 100.978"></polygon>
                    <polygon id="Shape" fill="#004A97" fill-rule="nonzero" points="291.823 25.023 291.823 12.527 314.531 12.527 314.531 25.023"></polygon>
                    <path d="M436.892,1.305 C391.788,25.005 371.615,64.921 371.615,64.921 L394.698,100.978 L369.375,100.978 C369.375,100.978 358.004,83.026 356.97,80.725 C347.325,92.796 344.05,100.978 344.05,100.978 L320.448,100.978 C320.449,100.978 363.861,5.875 436.892,1.305 Z" id="Shape" fill="#004A97" fill-rule="nonzero"></path>
                    <path d="M467.074,27.484 C462.01,24.262 454.34,21.347 443.752,21.347 C425.954,21.347 411.685,33.468 411.685,52.033 C411.685,70.446 425.955,82.566 444.52,82.566 C455.106,82.566 463.239,80.265 468.608,76.736 L466.613,98.063 C461.09,101.286 452.805,103.28 440.991,103.28 C415.214,103.28 387.595,85.635 387.595,52.034 C387.595,18.279 415.367,0.788 440.991,0.788 C453.265,0.788 462.931,3.396 468.761,6.772 L467.074,27.484 Z" id="Shape" fill="#E75300" fill-rule="nonzero"></path>
                    <path d="M532.398,103.126 C525.647,102.666 520.585,100.057 517.669,95.301 C512.913,100.518 505.701,103.126 498.183,103.126 C484.068,103.126 473.021,94.535 473.021,80.265 C473.021,67.53 482.994,59.091 496.649,57.71 L510.458,56.33 L510.458,53.875 C510.458,49.579 507.389,46.664 499.564,46.664 C491.586,46.664 483.607,48.812 479.157,51.42 L477.47,34.236 C482.687,31.32 492.2,29.325 500.792,29.325 C520.125,29.325 532.246,39.299 532.246,57.25 L532.246,77.197 C532.246,83.335 535.315,86.709 540.225,87.477 L532.398,103.126 Z M511.071,70.598 L501.712,71.519 C495.269,72.132 492.66,76.275 492.66,80.572 C492.66,84.254 495.729,87.323 500.024,87.323 C505.548,87.323 511.071,82.873 511.071,77.043 L511.071,70.598 Z" id="Shape" fill="#E75300" fill-rule="nonzero"></path>
                    <path d="M593.082,49.732 C581.113,49.732 570.066,56.79 570.066,73.514 L570.066,100.978 L547.665,100.978 L547.665,31.474 L568.378,31.474 L568.991,42.368 C573.287,33.622 581.879,30.246 593.234,30.246 L594.921,49.732 C594.616,49.732 594.156,49.732 593.082,49.732 Z" id="Shape" fill="#E75300" fill-rule="nonzero"></path>
                    <polygon id="Shape" fill="#004A97" fill-rule="nonzero" points="355.541 45.013 337.995 57.842 320.449 31.474 347.097 31.474"></polygon>
                    <path d="M233.414,49.885 L235.101,31.474 L213.314,31.474 L213.314,9.84 L191.834,17.971 L191.834,31.474 L170.239,31.474 C176.936,35.477 181.312,41.746 182.919,49.885 L191.374,49.885 L191.374,78.27 C191.374,92.232 201.807,102.205 217.151,102.205 C221.6,102.205 225.436,101.592 227.737,100.518 L229.424,82.105 C227.431,82.873 225.128,83.18 222.214,83.18 C217.15,83.18 213.621,80.264 213.621,75.048 L213.621,49.885 L233.414,49.885 L233.414,49.885 Z" id="Shape" fill="#004A97" fill-rule="nonzero"></path>
                    <path d="M634.262,44.928 C627.511,44.928 621.68,49.839 620.145,56.896 L644.695,56.896 C644.848,56.437 644.848,55.977 644.848,55.363 C644.849,49.839 640.706,44.928 634.262,44.928 Z M665.409,71.318 L620.914,71.318 C622.601,77.456 629.046,84.514 641.32,84.514 C649.299,84.514 658.153,82.672 664.136,79.144 C664.136,79.144 661.114,98.188 660.566,98.416 C655.931,100.348 646.945,101.698 638.712,101.698 C616.004,101.698 598.053,87.122 598.053,64.414 C598.053,41.859 614.777,27.896 634.263,27.896 C653.595,27.896 665.409,41.245 665.409,55.515 C665.409,57.816 665.409,71.318 665.409,71.318 Z" id="Shape" fill="#E75300" fill-rule="nonzero"></path>
                    <text id="®" fill="#004A97" font-family="Helvetica" font-size="16.3442" font-weight="normal">
                        <tspan x="665.4097" y="37.5444">®</tspan>
                    </text>
                </g>
            </g>
        </g>
    </g>
</svg>